<svg version="1.1" id="Layer_1" xmlns="http://www.w3.org/2000/svg" xmlns:xlink="http://www.w3.org/1999/xlink" x="0px" y="0px"
	 width="100%" viewBox="0 0 512 512" enable-background="new 0 0 512 512" xml:space="preserve">
<path fill="#000100" opacity="1.000000" stroke="none" 
	d="
M330.000000,513.000000 
	C220.026718,513.000000 110.553429,513.000000 1.080140,513.000000 
	C1.053424,512.860107 1.003294,512.720154 1.003291,512.580261 
	C0.999987,342.121857 1.000000,171.663452 1.000000,1.000000 
	C86.244049,1.000000 171.488266,1.000000 256.732483,1.000000 
	C342.045013,1.000000 427.357513,1.000000 512.835022,1.000000 
	C512.835022,171.666534 512.835022,342.333252 512.835022,513.000000 
	C452.136688,513.000000 391.318329,513.000000 330.000000,513.000000 
M39.000053,278.578552 
	C39.000053,276.149231 39.000053,273.719940 39.000053,271.000610 
	C50.481464,271.000610 61.311146,271.394257 72.092003,270.839325 
	C77.726700,270.549255 80.090782,272.524933 82.228821,277.557800 
	C94.326828,306.036133 106.814308,334.349548 119.295860,362.663239 
	C120.041412,364.354401 121.846054,366.760590 123.222450,366.804352 
	C134.004761,367.147461 144.802872,366.994476 156.396240,366.994476 
	C141.261536,334.198364 126.400566,301.995453 111.369064,269.422974 
	C132.599365,264.681458 144.024994,251.147522 148.475937,231.274582 
	C152.283997,214.272110 152.154663,197.152786 147.705032,180.291275 
	C143.291290,163.565704 133.365829,151.344223 116.263107,146.509094 
	C109.619583,144.630905 102.503448,143.712402 95.587982,143.633224 
	C67.929100,143.316574 40.264481,143.501419 12.601983,143.500732 
	C10.828408,143.500687 9.054834,143.500732 7.183254,143.500732 
	C7.183254,218.310410 7.183254,292.401703 7.183254,366.716034 
	C17.815830,366.716034 28.204247,366.716034 39.000053,366.716034 
	C39.000053,337.474854 39.000053,308.516327 39.000053,278.578552 
M349.882294,148.726227 
	C349.882294,221.333145 349.882294,293.940063 349.882294,366.527985 
	C350.882843,366.761444 351.348755,366.964996 351.814789,366.965363 
	C378.480469,366.984680 405.177826,367.806671 431.803497,366.776764 
	C462.740448,365.580109 484.972839,350.372925 496.989777,321.341431 
	C502.848175,307.188171 505.462677,292.264648 506.469482,277.091766 
	C508.174835,251.391861 507.881683,225.770264 500.914886,200.702484 
	C491.226624,165.842529 468.784485,146.182434 432.919098,144.039093 
	C406.347290,142.451126 379.612366,143.622055 352.950623,143.472870 
	C349.508606,143.453613 349.841278,145.596313 349.882294,148.726227 
M298.075165,260.500000 
	C298.075165,221.705658 298.075165,182.911301 298.075165,143.906189 
	C264.459625,143.906189 231.258575,143.906189 197.966370,143.906189 
	C197.966370,151.546066 197.966370,158.774536 197.966370,166.570343 
	C220.740372,166.570343 243.144897,166.570343 265.770203,166.570343 
	C265.868042,168.431717 265.996002,169.733292 265.996216,171.034912 
	C266.003662,218.183731 266.025452,265.332581 265.947083,312.481293 
	C265.940735,316.288025 265.526184,320.149750 264.803070,323.889587 
	C262.161407,337.551941 253.684601,345.944031 239.448273,347.522736 
	C226.363617,348.973785 216.969635,343.092255 211.395203,331.820312 
	C208.921600,326.818481 207.214294,321.437653 204.675369,315.002716 
	C195.502884,316.985413 186.029999,319.033020 176.041016,321.192200 
	C180.374329,341.010773 188.338669,357.937439 207.489136,365.772766 
	C228.040558,374.181244 249.381058,373.757721 269.614014,364.330322 
	C288.248047,355.647888 297.195099,339.640015 297.860809,319.472870 
	C298.498108,300.167236 298.047577,280.825745 298.075165,260.500000 
z"/>
<path fill="#00FE00" opacity="1.000000" stroke="none" 
	d="
M39.000053,279.068176 
	C39.000053,308.516327 39.000053,337.474854 39.000053,366.716034 
	C28.204247,366.716034 17.815830,366.716034 7.183254,366.716034 
	C7.183254,292.401703 7.183254,218.310410 7.183254,143.500732 
	C9.054834,143.500732 10.828408,143.500687 12.601983,143.500732 
	C40.264481,143.501419 67.929100,143.316574 95.587982,143.633224 
	C102.503448,143.712402 109.619583,144.630905 116.263107,146.509094 
	C133.365829,151.344223 143.291290,163.565704 147.705032,180.291275 
	C152.154663,197.152786 152.283997,214.272110 148.475937,231.274582 
	C144.024994,251.147522 132.599365,264.681458 111.369064,269.422974 
	C126.400566,301.995453 141.261536,334.198364 156.396240,366.994476 
	C144.802872,366.994476 134.004761,367.147461 123.222450,366.804352 
	C121.846054,366.760590 120.041412,364.354401 119.295860,362.663239 
	C106.814308,334.349548 94.326828,306.036133 82.228821,277.557800 
	C80.090782,272.524933 77.726700,270.549255 72.092003,270.839325 
	C61.311146,271.394257 50.481464,271.000610 39.000053,271.000610 
	C39.000053,273.719940 39.000053,276.149231 39.000053,279.068176 
M38.998272,170.789642 
	C38.998272,196.705566 38.998272,222.621490 38.998272,248.832153 
	C57.768078,248.832153 76.059105,249.460205 94.281860,248.615463 
	C106.818588,248.034317 114.714531,240.322769 115.907013,227.709045 
	C117.090698,215.188232 117.395813,202.398453 116.261208,189.892197 
	C114.891426,174.793732 107.136589,167.536819 92.321671,166.826645 
	C75.548759,166.022583 58.711369,166.496964 41.904091,166.647232 
	C40.926411,166.655975 39.967293,168.741119 38.998272,170.789642 
z"/>
<path fill="#00FE00" opacity="1.000000" stroke="none" 
	d="
M349.882507,148.255234 
	C349.841278,145.596313 349.508606,143.453613 352.950623,143.472870 
	C379.612366,143.622055 406.347290,142.451126 432.919098,144.039093 
	C468.784485,146.182434 491.226624,165.842529 500.914886,200.702484 
	C507.881683,225.770264 508.174835,251.391861 506.469482,277.091766 
	C505.462677,292.264648 502.848175,307.188171 496.989777,321.341431 
	C484.972839,350.372925 462.740448,365.580109 431.803497,366.776764 
	C405.177826,367.806671 378.480469,366.984680 351.814789,366.965363 
	C351.348755,366.964996 350.882843,366.761444 349.882294,366.527985 
	C349.882294,293.940063 349.882294,221.333145 349.882507,148.255234 
M471.881866,298.200684 
	C472.320862,292.726868 473.098663,287.255432 473.137238,281.778809 
	C473.268707,263.116730 473.415192,244.446213 472.969299,225.792953 
	C472.799957,218.708405 471.669739,211.498245 469.887299,204.628204 
	C464.155609,182.537125 447.749664,168.483383 425.015198,166.963455 
	C411.090271,166.032516 397.054779,166.752167 383.068939,166.758316 
	C382.816498,166.758423 382.564209,167.106354 382.217773,167.361176 
	C382.217773,226.050690 382.217773,284.794373 382.217773,343.999329 
	C396.100800,343.999329 409.723022,344.022797 423.345093,343.990875 
	C432.052521,343.970459 440.124329,341.530304 447.495422,336.999664 
	C461.672424,328.285767 468.645416,314.884460 471.881866,298.200684 
z"/>
<path fill="#00FE00" opacity="1.000000" stroke="none" 
	d="
M298.075165,261.000000 
	C298.047577,280.825745 298.498108,300.167236 297.860809,319.472870 
	C297.195099,339.640015 288.248047,355.647888 269.614014,364.330322 
	C249.381058,373.757721 228.040558,374.181244 207.489136,365.772766 
	C188.338669,357.937439 180.374329,341.010773 176.041016,321.192200 
	C186.029999,319.033020 195.502884,316.985413 204.675369,315.002716 
	C207.214294,321.437653 208.921600,326.818481 211.395203,331.820312 
	C216.969635,343.092255 226.363617,348.973785 239.448273,347.522736 
	C253.684601,345.944031 262.161407,337.551941 264.803070,323.889587 
	C265.526184,320.149750 265.940735,316.288025 265.947083,312.481293 
	C266.025452,265.332581 266.003662,218.183731 265.996216,171.034912 
	C265.996002,169.733292 265.868042,168.431717 265.770203,166.570343 
	C243.144897,166.570343 220.740372,166.570343 197.966370,166.570343 
	C197.966370,158.774536 197.966370,151.546066 197.966370,143.906189 
	C231.258575,143.906189 264.459625,143.906189 298.075165,143.906189 
	C298.075165,182.911301 298.075165,221.705658 298.075165,261.000000 
z"/>
<path fill="#000200" opacity="1.000000" stroke="none" 
	d="
M38.998905,170.324799 
	C39.967293,168.741119 40.926411,166.655975 41.904091,166.647232 
	C58.711369,166.496964 75.548759,166.022583 92.321671,166.826645 
	C107.136589,167.536819 114.891426,174.793732 116.261208,189.892197 
	C117.395813,202.398453 117.090698,215.188232 115.907013,227.709045 
	C114.714531,240.322769 106.818588,248.034317 94.281860,248.615463 
	C76.059105,249.460205 57.768078,248.832153 38.998272,248.832153 
	C38.998272,222.621490 38.998272,196.705566 38.998905,170.324799 
z"/>
<path fill="#000100" opacity="1.000000" stroke="none" 
	d="
M471.810425,298.623566 
	C468.645416,314.884460 461.672424,328.285767 447.495422,336.999664 
	C440.124329,341.530304 432.052521,343.970459 423.345093,343.990875 
	C409.723022,344.022797 396.100800,343.999329 382.217773,343.999329 
	C382.217773,284.794373 382.217773,226.050690 382.217773,167.361176 
	C382.564209,167.106354 382.816498,166.758423 383.068939,166.758316 
	C397.054779,166.752167 411.090271,166.032516 425.015198,166.963455 
	C447.749664,168.483383 464.155609,182.537125 469.887299,204.628204 
	C471.669739,211.498245 472.799957,218.708405 472.969299,225.792953 
	C473.415192,244.446213 473.268707,263.116730 473.137238,281.778809 
	C473.098663,287.255432 472.320862,292.726868 471.810425,298.623566 
z"/>
</svg>